<svg xmlns="http://www.w3.org/2000/svg" xmlns:xlink="http://www.w3.org/1999/xlink" contentStyleType="text/css" data-diagram-type="SEQUENCE" height="1571px" preserveAspectRatio="none" style="width:1519px;height:1571px;background:#FFFFFF;" version="1.1" viewBox="0 0 1519 1571" width="1519px" zoomAndPan="magnify"><defs/><g><rect fill="none" height="336.7266" style="stroke:#000000;stroke-width:1.5;" width="624.8521" x="371.4414" y="685.0859"/><rect fill="none" height="59.2656" style="stroke:#000000;stroke-width:1.5;" width="233.104" x="529.7739" y="815.6172"/><g><title>MSMT</title><rect fill="#000000" fill-opacity="0.00000" height="1408.9063" width="8" x="143.7983" y="81.2969"/><line style="stroke:#181818;stroke-width:0.5;stroke-dasharray:5,5;" x1="147" x2="147" y1="81.2969" y2="1490.2031"/></g><g><title>PDP</title><rect fill="#000000" fill-opacity="0.00000" height="1408.9063" width="8" x="394.2739" y="81.2969"/><line style="stroke:#181818;stroke-width:0.5;stroke-dasharray:5,5;" x1="397.4414" x2="397.4414" y1="81.2969" y2="1490.2031"/></g><g><title>Trends-Service</title><rect fill="#000000" fill-opacity="0.00000" height="1408.9063" width="8" x="595.1577" y="81.2969"/><line style="stroke:#181818;stroke-width:0.5;stroke-dasharray:5,5;" x1="598.7739" x2="598.7739" y1="81.2969" y2="1490.2031"/></g><g><title>VHS Library</title><rect fill="#000000" fill-opacity="0.00000" height="1408.9063" width="8" x="934.0967" y="81.2969"/><line style="stroke:#181818;stroke-width:0.5;stroke-dasharray:5,5;" x1="937.8999" x2="937.8999" y1="81.2969" y2="1490.2031"/></g><g><title>TIS Library</title><rect fill="#000000" fill-opacity="0.00000" height="1408.9063" width="8" x="1188.98" y="81.2969"/><line style="stroke:#181818;stroke-width:0.5;stroke-dasharray:5,5;" x1="1192.4951" x2="1192.4951" y1="81.2969" y2="1490.2031"/></g><g><title>Consumer .UI . Reporting . etc..</title><rect fill="#000000" fill-opacity="0.00000" height="1408.9063" width="8" x="1389.1528" y="81.2969"/><line style="stroke:#181818;stroke-width:0.5;stroke-dasharray:5,5;" x1="1392.498" x2="1392.498" y1="81.2969" y2="1490.2031"/></g><g class="participant participant-head" data-participant="M"><text fill="#000000" font-family="sans-serif" font-size="14" lengthAdjust="spacing" textLength="41.5967" x="124" y="77.9951">MSMT</text><ellipse cx="147.7983" cy="13.5" fill="#E2E2F0" rx="8" ry="8" style="stroke:#181818;stroke-width:0.5;"/><path d="M147.7983,21.5 L147.7983,48.5 M134.7983,29.5 L160.7983,29.5 M147.7983,48.5 L134.7983,63.5 M147.7983,48.5 L160.7983,63.5" fill="none" style="stroke:#181818;stroke-width:0.5;"/></g><g class="participant participant-tail" data-participant="M"><text fill="#000000" font-family="sans-serif" font-size="14" lengthAdjust="spacing" textLength="41.5967" x="124" y="1502.1982">MSMT</text><ellipse cx="147.7983" cy="1514" fill="#E2E2F0" rx="8" ry="8" style="stroke:#181818;stroke-width:0.5;"/><path d="M147.7983,1522 L147.7983,1549 M134.7983,1530 L160.7983,1530 M147.7983,1549 L134.7983,1564 M147.7983,1549 L160.7983,1564" fill="none" style="stroke:#181818;stroke-width:0.5;"/></g><g class="participant participant-head" data-participant="P"><text fill="#000000" font-family="sans-serif" font-size="14" lengthAdjust="spacing" textLength="27.665" x="381.4414" y="77.9951">PDP</text><ellipse cx="398.2739" cy="13.5" fill="#E2E2F0" rx="8" ry="8" style="stroke:#181818;stroke-width:0.5;"/><path d="M398.2739,21.5 L398.2739,48.5 M385.2739,29.5 L411.2739,29.5 M398.2739,48.5 L385.2739,63.5 M398.2739,48.5 L411.2739,63.5" fill="none" style="stroke:#181818;stroke-width:0.5;"/></g><g class="participant participant-tail" data-participant="P"><text fill="#000000" font-family="sans-serif" font-size="14" lengthAdjust="spacing" textLength="27.665" x="381.4414" y="1502.1982">PDP</text><ellipse cx="398.2739" cy="1514" fill="#E2E2F0" rx="8" ry="8" style="stroke:#181818;stroke-width:0.5;"/><path d="M398.2739,1522 L398.2739,1549 M385.2739,1530 L411.2739,1530 M398.2739,1549 L385.2739,1564 M398.2739,1549 L411.2739,1564" fill="none" style="stroke:#181818;stroke-width:0.5;"/></g><g class="participant participant-head" data-participant="T"><rect fill="#E2E2F0" height="30.2969" rx="2.5" ry="2.5" style="stroke:#181818;stroke-width:0.5;" width="118.7676" x="539.7739" y="50"/><text fill="#000000" font-family="sans-serif" font-size="14" lengthAdjust="spacing" textLength="104.7676" x="546.7739" y="69.9951">Trends-Service</text></g><g class="participant participant-tail" data-participant="T"><rect fill="#E2E2F0" height="30.2969" rx="2.5" ry="2.5" style="stroke:#181818;stroke-width:0.5;" width="118.7676" x="539.7739" y="1489.2031"/><text fill="#000000" font-family="sans-serif" font-size="14" lengthAdjust="spacing" textLength="104.7676" x="546.7739" y="1509.1982">Trends-Service</text></g><g class="participant participant-head" data-participant="V"><rect fill="#E2E2F0" height="30.2969" rx="2.5" ry="2.5" style="stroke:#181818;stroke-width:0.5;" width="96.3936" x="889.8999" y="50"/><text fill="#000000" font-family="sans-serif" font-size="14" lengthAdjust="spacing" textLength="82.3936" x="896.8999" y="69.9951">VHS Library</text></g><g class="participant participant-tail" data-participant="V"><rect fill="#E2E2F0" height="30.2969" rx="2.5" ry="2.5" style="stroke:#181818;stroke-width:0.5;" width="96.3936" x="889.8999" y="1489.2031"/><text fill="#000000" font-family="sans-serif" font-size="14" lengthAdjust="spacing" textLength="82.3936" x="896.8999" y="1509.1982">VHS Library</text></g><g class="participant participant-head" data-participant="L"><rect fill="#E2E2F0" height="30.2969" rx="2.5" ry="2.5" style="stroke:#181818;stroke-width:0.5;" width="88.9697" x="1148.4951" y="50"/><text fill="#000000" font-family="sans-serif" font-size="14" lengthAdjust="spacing" textLength="74.9697" x="1155.4951" y="69.9951">TIS Library</text></g><g class="participant participant-tail" data-participant="L"><rect fill="#E2E2F0" height="30.2969" rx="2.5" ry="2.5" style="stroke:#181818;stroke-width:0.5;" width="88.9697" x="1148.4951" y="1489.2031"/><text fill="#000000" font-family="sans-serif" font-size="14" lengthAdjust="spacing" textLength="74.9697" x="1155.4951" y="1509.1982">TIS Library</text></g><g class="participant participant-head" data-participant="C"><text fill="#000000" font-family="sans-serif" font-size="14" lengthAdjust="spacing" textLength="223.3096" x="1278.498" y="77.9951">Consumer (UI / Reporting / etc.)</text><ellipse cx="1393.1528" cy="13.5" fill="#E2E2F0" rx="8" ry="8" style="stroke:#181818;stroke-width:0.5;"/><path d="M1393.1528,21.5 L1393.1528,48.5 M1380.1528,29.5 L1406.1528,29.5 M1393.1528,48.5 L1380.1528,63.5 M1393.1528,48.5 L1406.1528,63.5" fill="none" style="stroke:#181818;stroke-width:0.5;"/></g><g class="participant participant-tail" data-participant="C"><text fill="#000000" font-family="sans-serif" font-size="14" lengthAdjust="spacing" textLength="223.3096" x="1278.498" y="1502.1982">Consumer (UI / Reporting / etc.)</text><ellipse cx="1393.1528" cy="1514" fill="#E2E2F0" rx="8" ry="8" style="stroke:#181818;stroke-width:0.5;"/><path d="M1393.1528,1522 L1393.1528,1549 M1380.1528,1530 L1406.1528,1530 M1393.1528,1549 L1380.1528,1564 M1393.1528,1549 L1406.1528,1564" fill="none" style="stroke:#181818;stroke-width:0.5;"/></g><rect fill="#EEEEEE" height="3" style="stroke:#EEEEEE;stroke-width:1;" width="1512.8076" x="0" y="111.8633"/><line style="stroke:#000000;stroke-width:1;" x1="0" x2="1512.8076" y1="111.8633" y2="111.8633"/><line style="stroke:#000000;stroke-width:1;" x1="0" x2="1512.8076" y1="114.8633" y2="114.8633"/><rect fill="#EEEEEE" height="23.1328" style="stroke:#000000;stroke-width:2;" width="169.3018" x="671.7529" y="101.2969"/><text fill="#000000" font-family="sans-serif" font-size="13" font-weight="bold" lengthAdjust="spacing" textLength="150.7759" x="677.7529" y="117.3638">System Initialization</text><g class="message" data-participant-1="M" data-participant-2="M"><line style="stroke:#181818;stroke-width:1;" x1="147.7983" x2="189.7983" y1="155.5625" y2="155.5625"/><line style="stroke:#181818;stroke-width:1;" x1="189.7983" x2="189.7983" y1="155.5625" y2="168.5625"/><line style="stroke:#181818;stroke-width:1;" x1="148.7983" x2="189.7983" y1="168.5625" y2="168.5625"/><polygon fill="#181818" points="158.7983,164.5625,148.7983,168.5625,158.7983,172.5625,154.7983,168.5625" style="stroke:#181818;stroke-width:1;"/><text fill="#000000" font-family="sans-serif" font-size="13" lengthAdjust="spacing" textLength="236.4756" x="154.7983" y="150.4966">Create channels, VMDs, and metrics</text></g><path d="M5,181.5625 L5,251.5625 L292,251.5625 L292,191.5625 L282,181.5625 L5,181.5625" fill="#FEFFDD" style="stroke:#181818;stroke-width:0.5;"/><path d="M282,181.5625 L282,191.5625 L292,191.5625 L282,181.5625" fill="#FEFFDD" style="stroke:#181818;stroke-width:0.5;"/><text fill="#000000" font-family="sans-serif" font-size="13" lengthAdjust="spacing" textLength="184.6914" x="11" y="198.6294">MSMT initializes the system:</text><text fill="#000000" font-family="sans-serif" font-size="13" lengthAdjust="spacing" textLength="226.0908" x="11" y="213.7622">- Creates communication channels</text><text fill="#000000" font-family="sans-serif" font-size="13" lengthAdjust="spacing" textLength="266.4429" x="11" y="228.895">- Creates Virtual Medical Devices (VMDs)</text><text fill="#000000" font-family="sans-serif" font-size="13" lengthAdjust="spacing" textLength="111.8457" x="11" y="244.0278">- Creates metrics</text><rect fill="#EEEEEE" height="3" style="stroke:#EEEEEE;stroke-width:1;" width="1512.8076" x="0" y="277.6602"/><line style="stroke:#000000;stroke-width:1;" x1="0" x2="1512.8076" y1="277.6602" y2="277.6602"/><line style="stroke:#000000;stroke-width:1;" x1="0" x2="1512.8076" y1="280.6602" y2="280.6602"/><rect fill="#EEEEEE" height="23.1328" style="stroke:#000000;stroke-width:2;" width="113.6074" x="699.6001" y="267.0938"/><text fill="#000000" font-family="sans-serif" font-size="13" font-weight="bold" lengthAdjust="spacing" textLength="95.0815" x="705.6001" y="283.1606">PDP Updates</text><g class="message" data-participant-1="M" data-participant-2="P"><polygon fill="#181818" points="386.2739,317.3594,396.2739,321.3594,386.2739,325.3594,390.2739,321.3594" style="stroke:#181818;stroke-width:1;"/><line style="stroke:#181818;stroke-width:1;" x1="147.7983" x2="392.2739" y1="321.3594" y2="321.3594"/><text fill="#000000" font-family="sans-serif" font-size="13" lengthAdjust="spacing" textLength="167.7178" x="154.7983" y="316.2935">AllVmdsByMdsId.update()</text></g><g class="message" data-participant-1="M" data-participant-2="P"><polygon fill="#181818" points="386.2739,346.4922,396.2739,350.4922,386.2739,354.4922,390.2739,350.4922" style="stroke:#181818;stroke-width:1;"/><line style="stroke:#181818;stroke-width:1;" x1="147.7983" x2="392.2739" y1="350.4922" y2="350.4922"/><text fill="#000000" font-family="sans-serif" font-size="13" lengthAdjust="spacing" textLength="158.6787" x="154.7983" y="345.4263">VmdTreeQuery.update()</text></g><path d="M253,363.4922 L253,433.4922 L542,433.4922 L542,373.4922 L532,363.4922 L253,363.4922" fill="#FEFFDD" style="stroke:#181818;stroke-width:0.5;"/><path d="M532,363.4922 L532,373.4922 L542,373.4922 L532,363.4922" fill="#FEFFDD" style="stroke:#181818;stroke-width:0.5;"/><text fill="#000000" font-family="sans-serif" font-size="13" lengthAdjust="spacing" textLength="145.4756" x="259" y="380.5591">PDP receives updates:</text><text fill="#000000" font-family="sans-serif" font-size="13" lengthAdjust="spacing" textLength="137.6299" x="259" y="395.6919">- All VMDs by MDS ID</text><text fill="#000000" font-family="sans-serif" font-size="13" lengthAdjust="spacing" textLength="111.1729" x="259" y="410.8247">- VMD tree query</text><text fill="#000000" font-family="sans-serif" font-size="13" lengthAdjust="spacing" textLength="268.6392" x="259" y="425.9575">- Generates metric keys for subscriptions</text><rect fill="#EEEEEE" height="3" style="stroke:#EEEEEE;stroke-width:1;" width="1512.8076" x="0" y="459.5898"/><line style="stroke:#000000;stroke-width:1;" x1="0" x2="1512.8076" y1="459.5898" y2="459.5898"/><line style="stroke:#000000;stroke-width:1;" x1="0" x2="1512.8076" y1="462.5898" y2="462.5898"/><rect fill="#EEEEEE" height="23.1328" style="stroke:#000000;stroke-width:2;" width="225.2817" x="643.7629" y="449.0234"/><text fill="#000000" font-family="sans-serif" font-size="13" font-weight="bold" lengthAdjust="spacing" textLength="206.7559" x="649.7629" y="465.0903">Trends-Service Subscription</text><g class="message" data-participant-1="P" data-participant-2="T"><polygon fill="#181818" points="587.1577,499.2891,597.1577,503.2891,587.1577,507.2891,591.1577,503.2891" style="stroke:#181818;stroke-width:1;"/><line style="stroke:#181818;stroke-width:1;" x1="398.2739" x2="593.1577" y1="503.2891" y2="503.2891"/><text fill="#000000" font-family="sans-serif" font-size="13" lengthAdjust="spacing" textLength="123.8301" x="405.2739" y="498.2231">onAllVmdsByMdsId</text></g><g class="message" data-participant-1="T" data-participant-2="P"><polygon fill="#181818" points="409.2739,528.4219,399.2739,532.4219,409.2739,536.4219,405.2739,532.4219" style="stroke:#181818;stroke-width:1;"/><line style="stroke:#181818;stroke-width:1;" x1="403.2739" x2="598.1577" y1="532.4219" y2="532.4219"/><text fill="#000000" font-family="sans-serif" font-size="13" lengthAdjust="spacing" textLength="176.8838" x="415.2739" y="527.356">subscribeToVmdTreeQuery</text></g><g class="message" data-participant-1="P" data-participant-2="T"><polygon fill="#181818" points="587.1577,557.5547,597.1577,561.5547,587.1577,565.5547,591.1577,561.5547" style="stroke:#181818;stroke-width:1;"/><line style="stroke:#181818;stroke-width:1;" x1="398.2739" x2="593.1577" y1="561.5547" y2="561.5547"/><text fill="#000000" font-family="sans-serif" font-size="13" lengthAdjust="spacing" textLength="122.3638" x="405.2739" y="556.4888">onVmdTreeUpdate</text></g><path d="M362,574.5547 L362,629.5547 L634,629.5547 L634,584.5547 L624,574.5547 L362,574.5547" fill="#FEFFDD" style="stroke:#181818;stroke-width:0.5;"/><path d="M624,574.5547 L624,584.5547 L634,584.5547 L624,574.5547" fill="#FEFFDD" style="stroke:#181818;stroke-width:0.5;"/><text fill="#000000" font-family="sans-serif" font-size="13" lengthAdjust="spacing" textLength="221.9648" x="374.7473" y="591.6216">Trends-Service subscribes to PDP:</text><text fill="#000000" font-family="sans-serif" font-size="13" lengthAdjust="spacing" textLength="197.5391" x="374.7473" y="606.7544">- Receives new/updated VMDs</text><text fill="#000000" font-family="sans-serif" font-size="13" lengthAdjust="spacing" textLength="237.6055" x="374.7473" y="621.8872">- Maintains latest metric information</text><rect fill="#EEEEEE" height="3" style="stroke:#EEEEEE;stroke-width:1;" width="1512.8076" x="0" y="655.5195"/><line style="stroke:#000000;stroke-width:1;" x1="0" x2="1512.8076" y1="655.5195" y2="655.5195"/><line style="stroke:#000000;stroke-width:1;" x1="0" x2="1512.8076" y1="658.5195" y2="658.5195"/><rect fill="#EEEEEE" height="23.1328" style="stroke:#000000;stroke-width:2;" width="213.7544" x="649.5266" y="644.9531"/><text fill="#000000" font-family="sans-serif" font-size="13" font-weight="bold" lengthAdjust="spacing" textLength="195.2285" x="655.5266" y="661.02">Trends-Service Interaction</text><path d="M371.4414,685.0859 L448.0654,685.0859 L448.0654,692.2188 L438.0654,702.2188 L371.4414,702.2188 L371.4414,685.0859" fill="#EEEEEE" style="stroke:#000000;stroke-width:1.5;"/><rect fill="none" height="336.7266" style="stroke:#000000;stroke-width:1.5;" width="624.8521" x="371.4414" y="685.0859"/><text fill="#000000" font-family="sans-serif" font-size="13" font-weight="bold" lengthAdjust="spacing" textLength="31.624" x="386.4414" y="698.1528">loop</text><text fill="#000000" font-family="sans-serif" font-size="11" font-weight="bold" lengthAdjust="spacing" textLength="92.2378" x="463.0654" y="697.2964">[Every minute]</text><g class="message" data-participant-1="T" data-participant-2="P"><polygon fill="#181818" points="409.2739,719.3516,399.2739,723.3516,409.2739,727.3516,405.2739,723.3516" style="stroke:#181818;stroke-width:1;"/><line style="stroke:#181818;stroke-width:1;" x1="403.2739" x2="598.1577" y1="723.3516" y2="723.3516"/><text fill="#000000" font-family="sans-serif" font-size="13" lengthAdjust="spacing" textLength="167.1973" x="415.2739" y="718.2856">fetch raw sampled values</text></g><g class="message" data-participant-1="T" data-participant-2="T"><line style="stroke:#181818;stroke-width:1;" x1="599.1577" x2="641.1577" y1="752.4844" y2="752.4844"/><line style="stroke:#181818;stroke-width:1;" x1="641.1577" x2="641.1577" y1="752.4844" y2="765.4844"/><line style="stroke:#181818;stroke-width:1;" x1="600.1577" x2="641.1577" y1="765.4844" y2="765.4844"/><polygon fill="#181818" points="610.1577,761.4844,600.1577,765.4844,610.1577,769.4844,606.1577,765.4844" style="stroke:#181818;stroke-width:1;"/><text fill="#000000" font-family="sans-serif" font-size="13" lengthAdjust="spacing" textLength="160.7925" x="606.1577" y="747.4185">calculate 1-minute trend</text></g><path d="M604,778.4844 L604,803.4844 L857,803.4844 L857,788.4844 L847,778.4844 L604,778.4844" fill="#FEFFDD" style="stroke:#181818;stroke-width:0.5;"/><path d="M847,778.4844 L847,788.4844 L857,788.4844 L847,778.4844" fill="#FEFFDD" style="stroke:#181818;stroke-width:0.5;"/><text fill="#000000" font-family="sans-serif" font-size="13" lengthAdjust="spacing" textLength="232.9907" x="610" y="795.5513">Accumulate data for 1-hour interval</text><path d="M529.7739,815.6172 L594.2168,815.6172 L594.2168,822.75 L584.2168,832.75 L529.7739,832.75 L529.7739,815.6172" fill="#EEEEEE" style="stroke:#000000;stroke-width:1.5;"/><rect fill="none" height="59.2656" style="stroke:#000000;stroke-width:1.5;" width="233.104" x="529.7739" y="815.6172"/><text fill="#000000" font-family="sans-serif" font-size="13" font-weight="bold" lengthAdjust="spacing" textLength="19.4429" x="544.7739" y="828.6841">alt</text><text fill="#000000" font-family="sans-serif" font-size="11" font-weight="bold" lengthAdjust="spacing" textLength="119.2705" x="609.2168" y="827.8276">[Start of new hour]</text><g class="message" data-participant-1="T" data-participant-2="T"><line style="stroke:#181818;stroke-width:1;" x1="599.1577" x2="641.1577" y1="853.8828" y2="853.8828"/><line style="stroke:#181818;stroke-width:1;" x1="641.1577" x2="641.1577" y1="853.8828" y2="866.8828"/><line style="stroke:#181818;stroke-width:1;" x1="600.1577" x2="641.1577" y1="866.8828" y2="866.8828"/><polygon fill="#181818" points="610.1577,862.8828,600.1577,866.8828,610.1577,870.8828,606.1577,866.8828" style="stroke:#181818;stroke-width:1;"/><text fill="#000000" font-family="sans-serif" font-size="13" lengthAdjust="spacing" textLength="144.7202" x="606.1577" y="848.8169">calculate 1-hour trend</text></g><g class="message" data-participant-1="T" data-participant-2="V"><polygon fill="#181818" points="926.0967,899.0156,936.0967,903.0156,926.0967,907.0156,930.0967,903.0156" style="stroke:#181818;stroke-width:1;"/><line style="stroke:#181818;stroke-width:1;" x1="599.1577" x2="932.0967" y1="903.0156" y2="903.0156"/><text fill="#000000" font-family="sans-serif" font-size="13" lengthAdjust="spacing" textLength="314.939" x="606.1577" y="897.9497">store 1-min &amp; 1-hr trend data (using metric key)</text></g><path d="M604,916.0156 L604,1016.0156 L909,1016.0156 L909,926.0156 L899,916.0156 L604,916.0156" fill="#FEFFDD" style="stroke:#181818;stroke-width:0.5;"/><path d="M899,916.0156 L899,926.0156 L909,926.0156 L899,916.0156" fill="#FEFFDD" style="stroke:#181818;stroke-width:0.5;"/><text fill="#000000" font-family="sans-serif" font-size="13" lengthAdjust="spacing" textLength="204.1089" x="610" y="933.0825">Steps performed every minute:</text><text fill="#000000" font-family="sans-serif" font-size="13" lengthAdjust="spacing" textLength="178.4771" x="610" y="948.2153">1. Fetch raw data from PDP</text><text fill="#000000" font-family="sans-serif" font-size="13" lengthAdjust="spacing" textLength="157.9233" x="610" y="963.3481">2. Calculate 1-min trend</text><text fill="#000000" font-family="sans-serif" font-size="13" lengthAdjust="spacing" textLength="185.2881" x="610" y="978.481">3. Accumulate for 1-hr trend</text><text fill="#000000" font-family="sans-serif" font-size="13" lengthAdjust="spacing" textLength="249.1709" x="610" y="993.6138">4. Calculate 1-hr trend at start of hour</text><text fill="#000000" font-family="sans-serif" font-size="13" lengthAdjust="spacing" textLength="284.4893" x="610" y="1008.7466">5. Store trend data to VHS using metric key</text><g class="message" data-participant-1="T" data-participant-2="T"><line style="stroke:#181818;stroke-width:1;" x1="599.1577" x2="641.1577" y1="1049.9453" y2="1049.9453"/><line style="stroke:#181818;stroke-width:1;" x1="641.1577" x2="641.1577" y1="1049.9453" y2="1062.9453"/><line style="stroke:#181818;stroke-width:1;" x1="600.1577" x2="641.1577" y1="1062.9453" y2="1062.9453"/><polygon fill="#181818" points="610.1577,1058.9453,600.1577,1062.9453,610.1577,1066.9453,606.1577,1062.9453" style="stroke:#181818;stroke-width:1;"/><text fill="#000000" font-family="sans-serif" font-size="13" lengthAdjust="spacing" textLength="219.8384" x="606.1577" y="1044.8794">use trend data internally / display</text></g><path d="M604,1075.9453 L604,1130.9453 L1011,1130.9453 L1011,1085.9453 L1001,1075.9453 L604,1075.9453" fill="#FEFFDD" style="stroke:#181818;stroke-width:0.5;"/><path d="M1001,1075.9453 L1001,1085.9453 L1011,1085.9453 L1001,1075.9453" fill="#FEFFDD" style="stroke:#181818;stroke-width:0.5;"/><text fill="#000000" font-family="sans-serif" font-size="13" lengthAdjust="spacing" textLength="386.623" x="610" y="1093.0122">Trends-Service can iterate or use calculated trend data for:</text><text fill="#000000" font-family="sans-serif" font-size="13" lengthAdjust="spacing" textLength="120.4595" x="610" y="1108.145">- Display purposes</text><text fill="#000000" font-family="sans-serif" font-size="13" lengthAdjust="spacing" textLength="131.041" x="610" y="1123.2778">- Further processing</text><rect fill="#EEEEEE" height="3" style="stroke:#EEEEEE;stroke-width:1;" width="1512.8076" x="0" y="1156.9102"/><line style="stroke:#000000;stroke-width:1;" x1="0" x2="1512.8076" y1="1156.9102" y2="1156.9102"/><line style="stroke:#000000;stroke-width:1;" x1="0" x2="1512.8076" y1="1159.9102" y2="1159.9102"/><rect fill="#EEEEEE" height="23.1328" style="stroke:#000000;stroke-width:2;" width="200.1323" x="656.3376" y="1146.3438"/><text fill="#000000" font-family="sans-serif" font-size="13" font-weight="bold" lengthAdjust="spacing" textLength="181.6064" x="662.3376" y="1162.4106">Consumer Access via TIS</text><g class="message" data-participant-1="C" data-participant-2="L"><polygon fill="#181818" points="1203.98,1196.6094,1193.98,1200.6094,1203.98,1204.6094,1199.98,1200.6094" style="stroke:#181818;stroke-width:1;"/><line style="stroke:#181818;stroke-width:1;" x1="1197.98" x2="1392.1528" y1="1200.6094" y2="1200.6094"/><text fill="#000000" font-family="sans-serif" font-size="13" lengthAdjust="spacing" textLength="176.1729" x="1209.98" y="1195.5435">getTrendedValue(metricId)</text></g><g class="message" data-participant-1="L" data-participant-2="V"><polygon fill="#181818" points="949.0967,1225.7422,939.0967,1229.7422,949.0967,1233.7422,945.0967,1229.7422" style="stroke:#181818;stroke-width:1;"/><line style="stroke:#181818;stroke-width:1;" x1="943.0967" x2="1191.98" y1="1229.7422" y2="1229.7422"/><text fill="#000000" font-family="sans-serif" font-size="13" lengthAdjust="spacing" textLength="230.8833" x="955.0967" y="1224.6763">read trended data using metric key</text></g><g class="message" data-participant-1="V" data-participant-2="L"><line style="stroke:#181818;stroke-width:1;" x1="1190.98" x2="1180.98" y1="1258.875" y2="1254.875"/><line style="stroke:#181818;stroke-width:1;" x1="1190.98" x2="1180.98" y1="1258.875" y2="1262.875"/><line style="stroke:#181818;stroke-width:1;stroke-dasharray:2,2;" x1="938.0967" x2="1191.98" y1="1258.875" y2="1258.875"/><text fill="#000000" font-family="sans-serif" font-size="13" lengthAdjust="spacing" textLength="131.4854" x="945.0967" y="1253.8091">TrendedValueResult</text></g><g class="message" data-participant-1="L" data-participant-2="P"><polygon fill="#181818" points="409.2739,1284.0078,399.2739,1288.0078,409.2739,1292.0078,405.2739,1288.0078" style="stroke:#181818;stroke-width:1;"/><line style="stroke:#181818;stroke-width:1;" x1="403.2739" x2="1191.98" y1="1288.0078" y2="1288.0078"/><text fill="#000000" font-family="sans-serif" font-size="13" lengthAdjust="spacing" textLength="305.9697" x="415.2739" y="1282.9419">manage subscriptions (1-min / 1-hr) as needed</text></g><g class="message" data-participant-1="P" data-participant-2="L"><line style="stroke:#181818;stroke-width:1;" x1="1190.98" x2="1180.98" y1="1317.1406" y2="1313.1406"/><line style="stroke:#181818;stroke-width:1;" x1="1190.98" x2="1180.98" y1="1317.1406" y2="1321.1406"/><line style="stroke:#181818;stroke-width:1;stroke-dasharray:2,2;" x1="398.2739" x2="1191.98" y1="1317.1406" y2="1317.1406"/><text fill="#000000" font-family="sans-serif" font-size="13" lengthAdjust="spacing" textLength="165.8325" x="405.2739" y="1312.0747">subscription confirmation</text></g><g class="message" data-participant-1="L" data-participant-2="C"><line style="stroke:#181818;stroke-width:1;" x1="1391.1528" x2="1381.1528" y1="1346.2734" y2="1342.2734"/><line style="stroke:#181818;stroke-width:1;" x1="1391.1528" x2="1381.1528" y1="1346.2734" y2="1350.2734"/><line style="stroke:#181818;stroke-width:1;stroke-dasharray:2,2;" x1="1192.98" x2="1392.1528" y1="1346.2734" y2="1346.2734"/><text fill="#000000" font-family="sans-serif" font-size="13" lengthAdjust="spacing" textLength="175.8809" x="1199.98" y="1341.2075">return TrendedValueResult</text></g><path d="M894,1359.2734 L894,1474.2734 L1236,1474.2734 L1236,1369.2734 L1226,1359.2734 L894,1359.2734" fill="#FEFFDD" style="stroke:#181818;stroke-width:0.5;"/><path d="M1226,1359.2734 L1226,1369.2734 L1236,1369.2734 L1226,1359.2734" fill="#FEFFDD" style="stroke:#181818;stroke-width:0.5;"/><text fill="#000000" font-family="sans-serif" font-size="13" lengthAdjust="spacing" textLength="80.8882" x="922.0671" y="1376.3403">VHS Library:</text><text fill="#000000" font-family="sans-serif" font-size="13" lengthAdjust="spacing" textLength="277.4307" x="922.0671" y="1391.4731">- Stores trend data in shared memory / DB</text><text fill="#000000" font-family="sans-serif" font-size="13" lengthAdjust="spacing" textLength="231.0483" x="922.0671" y="1406.606">- Accessed via metric key from PDP</text><text fill="#000000" font-family="sans-serif" font-size="13" lengthAdjust="spacing" textLength="73.9946" x="922.0671" y="1421.7388">TIS Library:</text><text fill="#000000" font-family="sans-serif" font-size="13" lengthAdjust="spacing" textLength="249.5137" x="922.0671" y="1436.8716">- Provides high-level API to consumers</text><text fill="#000000" font-family="sans-serif" font-size="13" lengthAdjust="spacing" textLength="252.5669" x="922.0671" y="1452.0044">- Automatically manages subscriptions</text><text fill="#000000" font-family="sans-serif" font-size="13" lengthAdjust="spacing" textLength="203.2964" x="922.0671" y="1467.1372">- Reads trended data from VHS</text><!--SRC=[VLNRRkCs47tdLmpoKDX0x22zl0J80bcxsngm03NswfsH9Z5HYLHvyKBz-ivGDyhjre0DcHmUddFc8bbwO-4kEsNdEv0ECY7xbNoVnuLSjD9wLQfMQWztPukwSfiJsgigCKQSbn75xoSugZShRHUtYnk0mtBxE5wuCzg51YsilXxW0LwnDNHCVz0p-dAxZj4x8PwVuTGvZmqSjF9ArkflwPNHyFmiCjXyWWoUO6THUeJo8hN6sjr3aUtfL-eA6lHMbKveGm7cIXTcWkM36k7GWRyWk7ZBazWCQ0vAqpH1gxA_RmHF0WfbVP0rP5XHL0rxP9SShFZwTH8uaY0pWOb4MMGvV6sh632AoKdCIrqNJUK-Trdb3jKsn93LUWwWNSeB_X7GTlFsB30N36snH7Kbx3x2iJA2ZjR0MmVP_WI7FItI0dZ2WxyOa1P-GuqsuGr_OkVWdRBcmfihhMhPa1iroqg1KnB9wd8cVoRoHY_rYVCeQm1_mxD95QP7X_NUjKJn-JuNDmGcDCgkOQzP_-leYSPl3xqlLJI4zZAfjAUlWvgr-r6yqgIyYJNmlueFsfDhvIYuDgQ5NubS1utIWSu0VIQnxrJa5x3o6pZPj3NHkCewe9kZM34LLHcO3ZnkUXJEbAvYL9HlrSV5WtcdjkIrbx8CJN-2nCcOjCVDnGHBEeWVNHBZPY7yJzOUJfxQbe786k03SUUxR2Bap8Nn24NCz0lEA7NwG1r-u4F3aPxRAZZkzxd6rj-LTVBOEcZHSYh8AqnyVOeHZrluCbdQIxUcuRp7xH-ti5jwcP3_QPlwDbYMgljvUNgI8Jr976oRBFjbItHPToALAf3dvAtWPIhuWQj6YCdnu1OmCOLQrdL7Kx9Ihgrb9sxzkYdBKcfGFlOpa396dF9OfU2acrjatyD26snh779dV0cM1gI5rXgQRgnXsGZJA2SNQH-kIWBFVUg27Iivaf8Fz94OLWNN-QetuL2jnN6i5fgL0o4SAFtBhm8scqyzO8hsYYvGyHt7vcgabX-ud5QmwjF-41EuvhUBHYG4dYyZQ7g2nhz-LsFd7_kWNUJfWzN_HI2PICNzKIIlHdOsLeLRvXFSHLhajrHZB6Tr_vd7TFIHPm8vESkVIpfvgp9oRirLLOHzeJBOrDGTDRpa1owxSiWDv_4bUCDoobX1lKdkPgRpZ9ILM-OXtajgfhJ_0m00]--></g></svg>